<?xml version="1.0" standalone="no"?>
<!DOCTYPE svg PUBLIC "-//W3C//DTD SVG 20010904//EN"
 "http://www.w3.org/TR/2001/REC-SVG-20010904/DTD/svg10.dtd">
<svg version="1.0" xmlns="http://www.w3.org/2000/svg"
 width="200.000000pt" height="200.000000pt" viewBox="0 0 200.000000 200.000000"
 preserveAspectRatio="xMidYMid meet">
<metadata>
Created by potrace 1.13, written by Peter Selinger 2001-2015
</metadata>
<g transform="translate(0.000000,200.000000) scale(0.100000,-0.100000)"
fill="#000000" stroke="none">
<path d="M787 1634 c-4 -4 -7 -21 -7 -37 0 -19 -10 -38 -30 -57 -16 -15 -30
-33 -30 -39 0 -8 85 -11 285 -11 283 0 286 0 275 20 -6 11 -22 27 -35 36 -17
11 -25 27 -27 52 l-3 37 -97 3 c-97 3 -97 3 -104 -23 -8 -31 -16 -32 -29 -2
-9 20 -18 22 -100 25 -50 1 -94 0 -98 -4z"/>
<path d="M692 1218 l3 -253 305 0 305 0 3 253 2 252 -310 0 -310 0 2 -252z"/>
<path d="M700 940 c0 -18 251 -444 272 -462 19 -17 17 -18 -76 -18 l-96 0 0
130 c0 113 -3 134 -20 162 l-21 33 3 -213 c2 -134 -1 -214 -7 -216 -5 -3 6 -5
25 -5 19 0 30 3 24 7 -7 4 -9 21 -7 40 l5 32 93 0 c82 0 93 -2 91 -17 0 -10 6
-18 14 -18 8 0 14 8 14 18 -2 15 9 17 91 17 l93 0 5 -32 c2 -19 0 -36 -7 -40
-6 -4 5 -7 24 -7 19 0 31 2 25 5 -6 2 -9 82 -8 216 l3 213 -20 -35 c-16 -29
-19 -55 -20 -162 l0 -128 -96 0 c-93 0 -95 1 -76 18 22 18 272 443 272 461 0
8 -96 11 -300 11 -196 0 -300 -4 -300 -10z"/>
</g>
</svg>
